<?xml version="1.0" standalone="no"?>
<!DOCTYPE svg PUBLIC "-//W3C//DTD SVG 20010904//EN"
 "http://www.w3.org/TR/2001/REC-SVG-20010904/DTD/svg10.dtd">
<svg version="1.0" xmlns="http://www.w3.org/2000/svg"
 width="688.000000pt" height="688.000000pt" viewBox="0 0 688.000000 688.000000"
 preserveAspectRatio="xMidYMid meet">
<metadata>
Created by potrace 1.11, written by Peter Selinger 2001-2013
</metadata>
<g transform="translate(0.000000,688.000000) scale(0.100000,-0.100000)"
fill="#000000" stroke="none">
<path d="M1069 6336 c-2 -2 -35 -6 -74 -9 -284 -23 -588 -91 -750 -167 -99
-47 -179 -111 -204 -163 -20 -42 -21 -57 -21 -469 0 -234 3 -441 7 -459 10
-51 102 -136 194 -181 127 -63 371 -131 539 -152 25 -4 59 -8 75 -11 55 -8
109 -14 220 -21 140 -10 2864 -10 2967 -1 129 12 388 70 613 138 118 36 559
182 595 198 14 6 84 31 155 56 130 46 222 80 260 96 11 5 178 67 370 140 462
173 689 248 772 256 l66 6 -74 23 c-65 20 -343 107 -527 165 -34 11 -138 42
-230 70 -92 27 -203 61 -247 74 -110 33 -414 119 -505 144 -83 22 -346 91
-370 97 -8 2 -42 10 -75 18 -33 7 -112 26 -175 40 -141 33 -330 71 -430 85
-41 6 -91 15 -110 18 -35 7 -3034 16 -3041 9z"/>
<path d="M1117 4244 c-1 -1 -49 -5 -107 -9 -101 -6 -143 -10 -199 -19 -14 -3
-46 -7 -71 -11 -93 -14 -107 -16 -190 -36 -271 -62 -456 -155 -519 -259 -20
-34 -21 -44 -21 -486 l0 -450 29 -45 c96 -153 489 -280 976 -316 128 -10 2951
-10 3027 -1 130 17 400 82 619 148 305 94 629 208 1284 455 564 212 734 270
834 282 l53 6 -108 34 c-285 90 -430 135 -439 137 -13 3 -164 49 -280 86 -121
38 -675 197 -840 240 -237 63 -624 156 -715 173 -14 3 -52 10 -85 16 -33 6
-71 13 -85 16 -195 38 -195 38 -1703 40 -801 1 -1458 0 -1460 -1z"/>
<path d="M1177 2174 c-1 -1 -58 -4 -127 -8 -69 -3 -136 -8 -150 -10 -14 -2
-50 -7 -80 -11 -30 -4 -62 -8 -70 -10 -8 -1 -37 -5 -65 -9 -66 -8 -242 -51
-330 -80 -170 -57 -310 -149 -341 -223 -21 -49 -20 -889 1 -939 61 -147 418
-286 845 -329 36 -4 81 -9 100 -13 61 -10 3010 -12 3075 -1 57 9 74 12 148 25
146 26 511 130 787 226 80 27 177 60 215 73 68 23 607 222 729 269 497 194
852 308 899 290 9 -3 17 -4 17 -1 0 3 -33 16 -73 28 -39 12 -103 32 -142 45
-147 48 -695 217 -760 234 -16 5 -77 23 -135 40 -58 17 -118 35 -135 40 -16 4
-145 40 -285 78 -414 114 -718 188 -960 232 -30 6 -64 12 -75 14 -24 5 -149
23 -225 32 -43 6 -2856 13 -2863 8z"/>
</g>
</svg>
